<svg width="189" height="58" viewBox="0 0 189 58" fill="none" xmlns="http://www.w3.org/2000/svg">
<mask id="mask0_11_65" style="mask-type:luminance" maskUnits="userSpaceOnUse" x="0" y="0" width="49" height="58">
<path d="M0.400391 43.2996C0.600391 43.5996 0.900391 43.7996 1.20039 43.9996L20.2004 54.9996L23.4004 56.7996C23.9004 57.0996 24.4004 57.1996 24.9004 57.1996C25.1004 57.1996 25.3004 57.1996 25.4004 57.0996L48.8004 14.2996C48.6004 14.0996 48.4004 13.8996 48.2004 13.7996L33.7004 5.39961L26.0004 0.899609C25.8004 0.799609 25.5004 0.699609 25.3004 0.599609L0.400391 43.2996Z" fill="white"/>
</mask>
<g mask="url(#mask0_11_65)">
<path d="M-26.5996 20.5996L17.5004 80.1996L75.8004 37.0996L31.8004 -22.4004L-26.5996 20.5996Z" fill="url(#paint0_linear_11_65)"/>
</g>
<mask id="mask1_11_65" style="mask-type:luminance" maskUnits="userSpaceOnUse" x="1" y="0" width="49" height="57">
<path d="M24.4008 0.500391C24.0008 0.500391 23.6008 0.700391 23.3008 0.900391L1.30078 13.7004L25.1008 57.0004C25.4008 57.0004 25.8008 56.8004 26.1008 56.7004L48.2008 43.9004C48.9008 43.5004 49.4008 42.8004 49.5008 42.1004L25.1008 0.500391C24.9008 0.400391 24.7008 0.400391 24.6008 0.400391C24.6008 0.500391 24.5008 0.500391 24.4008 0.500391Z" fill="white"/>
</mask>
<g mask="url(#mask1_11_65)">
<path d="M1.30078 0.5V57H49.5008V0.5H1.30078Z" fill="url(#paint1_linear_11_65)"/>
</g>
<path d="M65.5006 26.9996C64.3006 25.8996 63.7006 24.3996 63.6006 22.3996C63.6006 21.9996 63.6006 21.2996 63.6006 20.3996C63.6006 19.3996 63.6006 18.7996 63.6006 18.2996C63.7006 16.2996 64.3006 14.7996 65.5006 13.6996C66.7006 12.5996 68.3006 12.0996 70.4006 12.0996C71.8006 12.0996 73.0006 12.2996 74.0006 12.7996C75.0006 13.2996 75.8006 13.8996 76.4006 14.6996C77.0006 15.4996 77.3006 16.3996 77.3006 17.3996C77.3006 17.4996 77.3006 17.5996 77.2006 17.6996C77.1006 17.7996 77.0006 17.7996 76.9006 17.7996H74.7006C74.5006 17.7996 74.4006 17.7996 74.3006 17.6996C74.2006 17.5996 74.1006 17.4996 74.1006 17.2996C73.9006 16.2996 73.5006 15.6996 72.9006 15.2996C72.3006 14.8996 71.6006 14.6996 70.6006 14.6996C68.4006 14.6996 67.3006 15.8996 67.2006 18.3996C67.2006 18.7996 67.2006 19.4996 67.2006 20.2996C67.2006 21.1996 67.2006 21.7996 67.2006 22.2996C67.3006 24.7996 68.4006 25.9996 70.6006 25.9996C71.5006 25.9996 72.3006 25.7996 72.8006 25.3996C73.4006 24.9996 73.8006 24.2996 74.0006 23.3996C74.1006 23.1996 74.1006 22.9996 74.2006 22.9996C74.3006 22.8996 74.4006 22.8996 74.6006 22.8996H76.8006C76.9006 22.8996 77.1006 22.8996 77.2006 22.9996C77.3006 23.0996 77.3006 23.1996 77.3006 23.2996C77.3006 24.2996 77.0006 25.1996 76.4006 25.9996C75.8006 26.7996 75.1006 27.4996 74.0006 27.8996C73.0006 28.3996 71.8006 28.5996 70.4006 28.5996C68.3006 28.5996 66.7006 28.0996 65.5006 26.9996Z" fill="#3C3C3B"/>
<path d="M81.301 27C80.101 25.9 79.501 24.4 79.501 22.3C79.501 21.9 79.501 21.2 79.501 20.3C79.501 19.4 79.501 18.8 79.501 18.3C79.601 16.3 80.201 14.7 81.401 13.6C82.601 12.5 84.201 12 86.301 12C88.301 12 89.901 12.5 91.101 13.6C92.301 14.7 92.901 16.3 93.001 18.3C93.001 19.2 93.001 19.8 93.001 20.3C93.001 20.7 93.001 21.4 93.001 22.3C92.901 24.4 92.301 26 91.101 27C89.901 28.1 88.301 28.6 86.201 28.6C84.101 28.6 82.401 28.1 81.301 27ZM88.601 25C89.201 24.4 89.501 23.4 89.601 22.2C89.601 21.3 89.601 20.7 89.601 20.3C89.601 19.9 89.601 19.3 89.601 18.4C89.601 17.1 89.201 16.2 88.601 15.6C88.001 15 87.201 14.7 86.201 14.7C85.201 14.7 84.401 15 83.801 15.6C83.201 16.2 82.901 17.2 82.801 18.4C82.801 18.8 82.801 19.5 82.801 20.3C82.801 21.1 82.801 21.7 82.801 22.2C82.801 23.5 83.101 24.4 83.801 25C84.401 25.6 85.201 25.9 86.201 25.9C87.201 25.9 88.001 25.7 88.601 25Z" fill="#3C3C3B"/>
<path d="M97.301 27C96.101 25.9 95.501 24.4 95.501 22.3C95.501 21.9 95.501 21.2 95.501 20.3C95.501 19.4 95.501 18.8 95.501 18.3C95.601 16.3 96.201 14.7 97.401 13.6C98.601 12.5 100.201 12 102.301 12C104.301 12 105.901 12.5 107.101 13.6C108.301 14.7 108.901 16.3 109.001 18.3C109.001 19.2 109.001 19.8 109.001 20.3C109.001 20.7 109.001 21.4 109.001 22.3C108.901 24.4 108.301 26 107.101 27C105.901 28.1 104.301 28.6 102.201 28.6C100.101 28.6 98.401 28.1 97.301 27ZM104.601 25C105.201 24.4 105.501 23.4 105.601 22.2C105.601 21.3 105.601 20.7 105.601 20.3C105.601 19.9 105.601 19.3 105.601 18.4C105.601 17.1 105.201 16.2 104.601 15.6C104.001 15 103.201 14.7 102.201 14.7C101.201 14.7 100.401 15 99.801 15.6C99.201 16.2 98.901 17.2 98.801 18.4C98.801 18.8 98.801 19.5 98.801 20.3C98.801 21.1 98.801 21.7 98.801 22.2C98.801 23.5 99.101 24.4 99.801 25C100.401 25.6 101.201 25.9 102.201 25.9C103.201 25.9 104.001 25.7 104.601 25Z" fill="#3C3C3B"/>
<path d="M112.1 28.1992C112 28.0992 111.9 27.9992 111.9 27.7992V12.7992C111.9 12.5992 111.9 12.4992 112 12.3992C112.1 12.2992 112.2 12.1992 112.4 12.1992H114.5C114.7 12.1992 114.8 12.2992 114.9 12.3992C115 12.4992 115.1 12.5992 115.1 12.7992V18.1992L120.2 12.6992C120.4 12.3992 120.7 12.2992 121.1 12.2992H123.4C123.5 12.2992 123.6 12.2992 123.7 12.3992C123.8 12.4992 123.8 12.5992 123.8 12.6992C123.8 12.7992 123.8 12.8992 123.7 12.9992L117.4 19.8992L124.1 27.4992C124.2 27.5992 124.2 27.6992 124.2 27.7992C124.2 27.8992 124.2 28.0992 124.1 28.0992C124 28.1992 123.9 28.1992 123.8 28.1992H121.4C121.1 28.1992 120.8 28.0992 120.7 27.9992C120.6 27.8992 120.5 27.7992 120.5 27.7992L115 21.6992V27.5992C115 27.7992 114.9 27.8992 114.8 27.9992C114.7 28.0992 114.6 28.1992 114.4 28.1992H112.3C112.3 28.3992 112.2 28.2992 112.1 28.1992Z" fill="#3C3C3B"/>
<path d="M145.301 27C144.101 25.9 143.501 24.4 143.501 22.3C143.501 21.9 143.501 21.2 143.501 20.3C143.501 19.4 143.501 18.8 143.501 18.3C143.601 16.3 144.201 14.7 145.401 13.6C146.601 12.5 148.201 12 150.301 12C152.301 12 153.901 12.5 155.101 13.6C156.301 14.7 156.901 16.3 157.001 18.3C157.001 19.2 157.001 19.8 157.001 20.3C157.001 20.7 157.001 21.4 157.001 22.3C156.901 24.4 156.301 26 155.101 27C153.901 28.1 152.301 28.6 150.201 28.6C148.101 28.6 146.401 28.1 145.301 27ZM152.601 25C153.201 24.4 153.501 23.4 153.601 22.2C153.601 21.3 153.601 20.7 153.601 20.3C153.601 19.9 153.601 19.3 153.601 18.4C153.601 17.1 153.201 16.2 152.601 15.6C152.001 15 151.201 14.7 150.201 14.7C149.201 14.7 148.401 15 147.801 15.6C147.201 16.2 146.901 17.2 146.801 18.4C146.801 18.8 146.801 19.5 146.801 20.3C146.801 21.1 146.801 21.7 146.801 22.2C146.801 23.5 147.101 24.4 147.801 25C148.401 25.6 149.201 25.9 150.201 25.9C151.201 25.9 152.001 25.7 152.601 25Z" fill="#3C3C3B"/>
<path d="M161.301 27C160.101 25.9 159.501 24.4 159.501 22.3C159.501 21.9 159.501 21.2 159.501 20.3C159.501 19.4 159.501 18.8 159.501 18.3C159.601 16.3 160.201 14.7 161.401 13.6C162.601 12.5 164.201 12 166.301 12C168.301 12 169.901 12.5 171.101 13.6C172.301 14.7 172.901 16.3 173.001 18.3C173.001 19.2 173.001 19.8 173.001 20.3C173.001 20.7 173.001 21.4 173.001 22.3C172.901 24.4 172.301 26 171.101 27C169.901 28.1 168.301 28.6 166.201 28.6C164.101 28.6 162.401 28.1 161.301 27ZM168.601 25C169.201 24.4 169.501 23.4 169.601 22.2C169.601 21.3 169.601 20.7 169.601 20.3C169.601 19.9 169.601 19.3 169.601 18.4C169.601 17.1 169.201 16.2 168.601 15.6C168.001 15 167.201 14.7 166.201 14.7C165.201 14.7 164.401 15 163.801 15.6C163.201 16.2 162.901 17.2 162.801 18.4C162.801 18.8 162.801 19.5 162.801 20.3C162.801 21.1 162.801 21.7 162.801 22.2C162.801 23.5 163.101 24.4 163.801 25C164.401 25.6 165.201 25.9 166.201 25.9C167.201 25.9 168.001 25.7 168.601 25Z" fill="#3C3C3B"/>
<path d="M176.1 28.1992C176 28.0992 175.9 27.9992 175.9 27.7992V12.7992C175.9 12.5992 175.9 12.4992 176 12.3992C176.1 12.2992 176.2 12.1992 176.4 12.1992H178.5C178.7 12.1992 178.8 12.2992 178.9 12.3992C179 12.4992 179.1 12.5992 179.1 12.7992V18.1992L184.2 12.6992C184.4 12.3992 184.7 12.2992 185.1 12.2992H187.4C187.5 12.2992 187.6 12.2992 187.7 12.3992C187.8 12.4992 187.8 12.5992 187.8 12.6992C187.8 12.7992 187.8 12.8992 187.7 12.9992L181.4 19.8992L188.1 27.4992C188.2 27.5992 188.2 27.6992 188.2 27.7992C188.2 27.8992 188.2 28.0992 188.1 28.0992C188 28.1992 187.9 28.1992 187.8 28.1992H185.4C185.1 28.1992 184.8 28.0992 184.7 27.9992C184.6 27.8992 184.5 27.7992 184.5 27.7992L179 21.6992V27.5992C179 27.7992 178.9 27.8992 178.8 27.9992C178.7 28.0992 178.6 28.1992 178.4 28.1992H176.3C176.3 28.3992 176.2 28.2992 176.1 28.1992Z" fill="#3C3C3B"/>
<path d="M128.201 28.1992C128.101 28.0992 128.001 27.9992 128.001 27.7992V12.7992C128.001 12.5992 128.001 12.4992 128.101 12.3992C128.201 12.2992 128.301 12.1992 128.501 12.1992H135.201C137.001 12.1992 138.301 12.5992 139.201 13.3992C140.101 14.1992 140.501 15.2992 140.501 16.5992C140.501 17.3992 140.301 18.0992 139.901 18.5992C139.501 19.1992 139.101 19.5992 138.501 19.7992C139.101 20.0992 139.701 20.5992 140.101 21.1992C140.501 21.8992 140.801 22.5992 140.801 23.4992C140.801 24.8992 140.301 26.0992 139.401 26.9992C138.401 27.8992 137.101 28.2992 135.401 28.2992H128.501C128.401 28.3992 128.301 28.2992 128.201 28.1992ZM134.801 18.8992C135.601 18.8992 136.201 18.6992 136.601 18.2992C137.001 17.8992 137.201 17.3992 137.201 16.7992C137.201 16.1992 137.001 15.6992 136.601 15.2992C136.201 14.8992 135.601 14.7992 134.801 14.7992H131.201V18.8992H134.801ZM135.101 25.8992C135.901 25.8992 136.501 25.6992 137.001 25.1992C137.401 24.7992 137.701 24.1992 137.701 23.4992C137.701 22.7992 137.501 22.2992 137.001 21.7992C136.501 21.2992 135.901 21.0992 135.101 21.0992H131.301V25.6992H135.101V25.8992Z" fill="#3C3C3B"/>
<path d="M64.9008 45.3C64.8008 45.2 64.8008 45.2 64.8008 45.1V37.3C64.8008 37.2 64.8008 37.1 64.9008 37.1C65.0008 37.1 65.0008 37 65.1008 37H65.7008C65.8008 37 65.9008 37.1 66.0008 37.2L68.5008 42.1L71.1008 37.2C71.2008 37.1 71.3008 37 71.4008 37H72.0008C72.1008 37 72.2008 37 72.2008 37.1C72.2008 37.2 72.3008 37.2 72.3008 37.3V45.1C72.3008 45.2 72.3008 45.2 72.2008 45.3C72.1008 45.4 72.1008 45.4 72.0008 45.4H71.5008C71.4008 45.4 71.4008 45.4 71.3008 45.3C71.2008 45.2 71.2008 45.2 71.2008 45.1V39.2L69.2008 43.1C69.1008 43.3 69.0008 43.3 68.8008 43.3H68.4008C68.2008 43.3 68.1008 43.2 68.0008 43.1L66.0008 39.2V45.1C66.0008 45.2 66.0008 45.2 65.9008 45.3C65.8008 45.4 65.8008 45.4 65.7008 45.4H65.2008C65.0008 45.3 64.9008 45.3 64.9008 45.3Z" fill="#3C3C3B"/>
<path d="M74.7006 45.2016C74.4006 45.0016 74.1006 44.8016 73.9006 44.6016C73.7006 44.3016 73.6006 44.0016 73.6006 43.7016C73.6006 43.2016 73.8006 42.7016 74.2006 42.4016C74.6006 42.1016 75.2006 41.8016 75.9006 41.7016L77.7006 41.5016V41.2016C77.7006 40.4016 77.2006 40.0016 76.3006 40.0016C75.9006 40.0016 75.6006 40.1016 75.4006 40.2016C75.2006 40.3016 75.0006 40.5016 74.9006 40.7016C74.9006 40.8016 74.8006 40.8016 74.8006 40.9016H74.7006H74.2006C74.1006 40.9016 74.1006 40.9016 74.0006 40.8016C73.9006 40.7016 73.9006 40.7016 73.9006 40.6016C73.9006 40.4016 74.0006 40.2016 74.2006 40.0016C74.4006 39.8016 74.6006 39.5016 75.0006 39.4016C75.4006 39.2016 75.8006 39.1016 76.3006 39.1016C77.2006 39.1016 77.8006 39.3016 78.2006 39.7016C78.6006 40.1016 78.8006 40.6016 78.8006 41.2016V45.1016C78.8006 45.2016 78.8006 45.2016 78.7006 45.3016C78.6006 45.4016 78.6006 45.4016 78.5006 45.4016H78.0006C77.9006 45.4016 77.9006 45.4016 77.8006 45.3016C77.8006 45.2016 77.7006 45.2016 77.7006 45.1016V44.6016C77.5006 44.9016 77.3006 45.1016 76.9006 45.3016C76.6006 45.5016 76.1006 45.6016 75.6006 45.6016C75.4006 45.5016 75.0006 45.4016 74.7006 45.2016ZM77.3006 44.1016C77.6006 43.8016 77.8006 43.3016 77.8006 42.6016V42.3016L76.4006 42.5016C75.8006 42.6016 75.4006 42.7016 75.1006 42.9016C74.8006 43.1016 74.7006 43.3016 74.7006 43.6016C74.7006 43.9016 74.8006 44.2016 75.1006 44.3016C75.4006 44.5016 75.7006 44.6016 76.0006 44.6016C76.6006 44.6016 77.0006 44.4016 77.3006 44.1016Z" fill="#3C3C3B"/>
<path d="M81.0008 44.7C80.6008 44.2 80.4008 43.5 80.3008 42.7V42.3V41.9C80.3008 41.1 80.6008 40.4 81.0008 39.9C81.4008 39.4 82.0008 39.1 82.9008 39.1C83.8008 39.1 84.4008 39.4 84.8008 40V37.3C84.8008 37.2 84.8008 37.2 84.9008 37.1C85.0008 37 85.0008 37 85.1008 37H85.6008C85.7008 37 85.7008 37 85.8008 37.1C85.9008 37.2 85.9008 37.2 85.9008 37.3V45.2C85.9008 45.3 85.9008 45.3 85.8008 45.4C85.7008 45.5 85.7008 45.5 85.6008 45.5H85.1008C85.0008 45.5 85.0008 45.5 84.9008 45.4C84.9008 45.3 84.8008 45.3 84.8008 45.2V44.7C84.3008 45.3 83.7008 45.6 82.8008 45.6C82.0008 45.5 81.4008 45.2 81.0008 44.7ZM84.3008 44C84.6008 43.6 84.7008 43.2 84.8008 42.7C84.8008 42.6 84.8008 42.5 84.8008 42.2C84.8008 42 84.8008 41.8 84.8008 41.7C84.8008 41.2 84.6008 40.8 84.3008 40.4C84.0008 40 83.6008 40 83.1008 40C82.5008 40 82.1008 40.2 81.9008 40.5C81.7008 40.8 81.5008 41.3 81.5008 41.9V42.2C81.5008 43.7 82.1008 44.5 83.2008 44.5C83.7008 44.5 84.1008 44.4 84.3008 44Z" fill="#3C3C3B"/>
<path d="M88.2004 44.7C87.7004 44.2 87.5004 43.5 87.4004 42.6V42.2V41.8C87.4004 40.9 87.7004 40.3 88.2004 39.8C88.7004 39.3 89.3004 39 90.1004 39C91.0004 39 91.6004 39.3 92.1004 39.8C92.6004 40.4 92.8004 41.1 92.8004 42.1V42.3C92.8004 42.4 92.8004 42.4 92.7004 42.5C92.6004 42.6 92.6004 42.6 92.5004 42.6H88.4004V42.7C88.4004 43.2 88.6004 43.7 88.9004 44C89.2004 44.3 89.6004 44.5 90.1004 44.5C90.5004 44.5 90.8004 44.4 91.0004 44.3C91.2004 44.2 91.4004 44 91.5004 43.8C91.6004 43.7 91.6004 43.6 91.7004 43.6C91.8004 43.6 91.8004 43.6 91.9004 43.6H92.4004C92.5004 43.6 92.5004 43.6 92.6004 43.7C92.7004 43.7 92.7004 43.8 92.7004 43.9C92.7004 44.1 92.6004 44.3 92.4004 44.5C92.2004 44.7 91.9004 45 91.5004 45.1C91.1004 45.3 90.7004 45.4 90.2004 45.4C89.3004 45.5 88.7004 45.2 88.2004 44.7ZM91.8004 41.8C91.8004 41.2 91.6004 40.8 91.3004 40.4C91.0004 40.1 90.6004 39.9 90.1004 39.9C89.6004 39.9 89.2004 40.1 88.9004 40.4C88.6004 40.7 88.5004 41.2 88.5004 41.8H91.8004Z" fill="#3C3C3B"/>
<path d="M98.4006 45.3016C98.3006 45.3016 98.3006 45.2016 98.3006 45.1016L96.6006 39.6016V39.5016C96.6006 39.4016 96.6006 39.4016 96.7006 39.3016C96.7006 39.3016 96.8006 39.2016 96.9006 39.2016H97.4006C97.5006 39.2016 97.5006 39.2016 97.6006 39.3016C97.7006 39.3016 97.7006 39.4016 97.7006 39.4016L99.0006 43.9016L100.401 39.4016C100.401 39.3016 100.501 39.3016 100.501 39.2016C100.601 39.1016 100.601 39.1016 100.701 39.1016H101.101C101.201 39.1016 101.301 39.1016 101.301 39.2016C101.401 39.3016 101.401 39.3016 101.401 39.4016L102.801 43.9016L104.101 39.4016C104.101 39.4016 104.101 39.3016 104.201 39.3016C104.301 39.3016 104.301 39.2016 104.401 39.2016H104.901C105.001 39.2016 105.001 39.2016 105.101 39.3016C105.101 39.3016 105.201 39.4016 105.201 39.5016V39.6016L103.501 45.1016C103.501 45.2016 103.401 45.3016 103.401 45.3016C103.401 45.3016 103.301 45.4016 103.201 45.4016H102.801C102.601 45.4016 102.501 45.3016 102.401 45.1016L101.001 40.8016L99.6006 45.1016C99.5006 45.3016 99.4006 45.4016 99.2006 45.4016H98.8006C98.5006 45.3016 98.4006 45.3016 98.4006 45.3016Z" fill="#3C3C3B"/>
<path d="M106.5 37.9008C106.4 37.8008 106.4 37.8008 106.4 37.7008V37.1008C106.4 37.0008 106.4 37.0008 106.5 36.9008C106.6 36.8008 106.6 36.8008 106.7 36.8008H107.4C107.5 36.8008 107.5 36.8008 107.6 36.9008C107.7 37.0008 107.7 37.0008 107.7 37.1008V37.7008C107.7 37.8008 107.7 37.8008 107.6 37.9008C107.5 38.0008 107.5 38.0008 107.4 38.0008H106.7C106.6 38.0008 106.5 38.0008 106.5 37.9008ZM106.5 45.3008C106.4 45.2008 106.4 45.2008 106.4 45.1008V39.5008C106.4 39.4008 106.4 39.4008 106.5 39.3008C106.6 39.2008 106.6 39.2008 106.7 39.2008H107.2C107.3 39.2008 107.3 39.2008 107.4 39.3008C107.5 39.4008 107.5 39.4008 107.5 39.5008V45.1008C107.5 45.2008 107.5 45.2008 107.4 45.3008C107.3 45.4008 107.3 45.4008 107.2 45.4008H106.7C106.7 45.3008 106.6 45.3008 106.5 45.3008Z" fill="#3C3C3B"/>
<path d="M109.901 43.3008V40.1008H109.001C108.901 40.1008 108.901 40.1008 108.801 40.0008C108.701 39.9008 108.701 39.9008 108.701 39.8008V39.4008C108.701 39.3008 108.701 39.3008 108.801 39.2008C108.801 39.1008 108.901 39.1008 109.001 39.1008H109.901V37.1008C109.901 37.0008 109.901 37.0008 110.001 36.9008C110.001 36.8008 110.101 36.8008 110.201 36.8008H110.701C110.801 36.8008 110.801 36.8008 110.901 36.9008C111.001 37.0008 111.001 37.0008 111.001 37.1008V39.1008H112.501C112.601 39.1008 112.601 39.1008 112.701 39.2008C112.801 39.3008 112.801 39.3008 112.801 39.4008V39.8008C112.801 39.9008 112.801 39.9008 112.701 40.0008C112.601 40.0008 112.601 40.1008 112.501 40.1008H111.001V43.2008C111.001 43.6008 111.101 43.9008 111.201 44.1008C111.301 44.3008 111.601 44.4008 111.901 44.4008H112.601C112.701 44.4008 112.701 44.4008 112.801 44.5008C112.901 44.6008 112.901 44.6008 112.901 44.7008V45.1008C112.901 45.2008 112.901 45.2008 112.801 45.3008C112.701 45.4008 112.701 45.4008 112.601 45.4008H111.801C110.501 45.3008 109.901 44.7008 109.901 43.3008Z" fill="#3C3C3B"/>
<path d="M114 45.3004C113.9 45.2004 113.9 45.2004 113.9 45.1004V37.2004C113.9 37.1004 113.9 37.0004 114 37.0004C114.1 37.0004 114.1 36.9004 114.2 36.9004H114.7C114.8 36.9004 114.9 36.9004 114.9 37.0004C114.9 37.0004 115 37.1004 115 37.2004V40.0004C115.2 39.7004 115.5 39.5004 115.8 39.3004C116.1 39.1004 116.5 39.1004 117 39.1004C117.8 39.1004 118.4 39.3004 118.8 39.8004C119.2 40.3004 119.4 40.9004 119.4 41.7004V45.1004C119.4 45.2004 119.4 45.2004 119.3 45.3004C119.2 45.4004 119.2 45.4004 119.1 45.4004H118.5C118.4 45.4004 118.4 45.4004 118.3 45.3004C118.2 45.2004 118.2 45.2004 118.2 45.1004V41.8004C118.2 41.2004 118.1 40.8004 117.8 40.5004C117.5 40.2004 117.1 40.0004 116.6 40.0004C116.1 40.0004 115.7 40.2004 115.4 40.5004C115.1 40.8004 114.9 41.3004 114.9 41.8004V45.1004C114.9 45.2004 114.9 45.2004 114.8 45.3004C114.7 45.4004 114.7 45.4004 114.6 45.4004H114.1C114.1 45.3004 114.1 45.3004 114 45.3004Z" fill="#3C3C3B"/>
<path d="M124.301 45.3004C124.301 45.2004 124.201 45.2004 124.201 45.1004V37.3004C124.201 37.2004 124.201 37.1004 124.301 37.1004C124.301 37.0004 124.401 37.0004 124.501 37.0004H125.001C125.101 37.0004 125.101 37.0004 125.201 37.0004L125.301 37.1004L129.301 43.2004V37.2004C129.301 37.1004 129.301 37.0004 129.401 37.0004C129.501 36.9004 129.501 36.9004 129.601 36.9004H130.101C130.201 36.9004 130.301 36.9004 130.301 37.0004C130.401 37.1004 130.401 37.1004 130.401 37.2004V44.9004C130.401 45.0004 130.401 45.0004 130.301 45.1004C130.201 45.2004 130.201 45.2004 130.101 45.2004H129.601C129.501 45.2004 129.401 45.1004 129.301 45.0004L125.301 38.9004V44.9004C125.301 45.0004 125.301 45.0004 125.201 45.1004C125.101 45.2004 125.101 45.2004 125.001 45.2004H124.501C124.401 45.3004 124.301 45.3004 124.301 45.3004Z" fill="#3C3C3B"/>
<path d="M132.801 44.7C132.301 44.2 132.101 43.6 132.001 42.7V42.2V41.7C132.001 40.9 132.301 40.2 132.801 39.7C133.301 39.2 133.901 39 134.801 39C135.701 39 136.301 39.2 136.801 39.7C137.301 40.2 137.501 40.8 137.601 41.7C137.601 41.9 137.601 42 137.601 42.2C137.601 42.4 137.601 42.5 137.601 42.7C137.601 43.5 137.301 44.2 136.801 44.7C136.301 45.2 135.701 45.4 134.801 45.4C133.901 45.4 133.301 45.2 132.801 44.7ZM136.001 44.1C136.301 43.8 136.501 43.3 136.501 42.7C136.501 42.6 136.501 42.5 136.501 42.2C136.501 41.9 136.501 41.8 136.501 41.7C136.501 41.1 136.301 40.6 136.001 40.3C135.701 40 135.301 39.8 134.801 39.8C134.301 39.8 133.901 40 133.601 40.3C133.301 40.6 133.101 41.1 133.101 41.7V42.2V42.7C133.101 43.3 133.301 43.8 133.601 44.1C133.901 44.4 134.301 44.6 134.801 44.6C135.301 44.6 135.701 44.4 136.001 44.1Z" fill="#3C3C3B"/>
<path d="M139.501 44.7C139.101 44.2 138.901 43.5 138.801 42.7V42.3V41.9C138.801 41.1 139.101 40.4 139.501 39.9C139.901 39.4 140.501 39.1 141.401 39.1C142.201 39.1 142.901 39.4 143.301 40V37.3C143.301 37.2 143.301 37.2 143.401 37.1C143.501 37 143.501 37 143.601 37H144.101C144.201 37 144.201 37 144.301 37.1C144.401 37.2 144.401 37.2 144.401 37.3V45.2C144.401 45.3 144.401 45.3 144.301 45.4C144.201 45.5 144.201 45.5 144.101 45.5H143.601C143.501 45.5 143.501 45.5 143.401 45.4C143.401 45.3 143.301 45.3 143.301 45.2V44.7C142.801 45.3 142.201 45.6 141.301 45.6C140.501 45.5 139.901 45.2 139.501 44.7ZM142.801 44C143.101 43.6 143.201 43.2 143.301 42.7C143.301 42.6 143.301 42.5 143.301 42.2C143.301 42 143.301 41.8 143.301 41.7C143.301 41.2 143.101 40.8 142.801 40.4C142.501 40 142.101 39.9 141.601 39.9C141.001 39.9 140.601 40.1 140.401 40.4C140.101 40.8 140.001 41.2 140.001 41.8V42.1C140.001 43.6 140.601 44.4 141.701 44.4C142.101 44.5 142.501 44.4 142.801 44Z" fill="#3C3C3B"/>
<path d="M146.7 44.7C146.2 44.2 146 43.5 145.9 42.6V42.2V41.8C145.9 40.9 146.2 40.3 146.7 39.8C147.2 39.3 147.8 39 148.6 39C149.5 39 150.1 39.3 150.6 39.8C151.1 40.4 151.3 41.1 151.3 42.1V42.3C151.3 42.4 151.3 42.4 151.2 42.5C151.1 42.6 151.1 42.6 151 42.6H146.9V42.7C146.9 43.2 147.1 43.7 147.4 44C147.7 44.3 148.1 44.5 148.6 44.5C149 44.5 149.3 44.4 149.5 44.3C149.7 44.2 149.9 44 150 43.8C150.1 43.7 150.1 43.6 150.2 43.6C150.2 43.6 150.3 43.6 150.4 43.6H150.9C151 43.6 151 43.6 151.1 43.7C151.2 43.7 151.2 43.8 151.2 43.9C151.2 44.1 151.1 44.3 150.9 44.5C150.7 44.7 150.4 45 150 45.1C149.6 45.3 149.2 45.4 148.7 45.4C147.8 45.5 147.1 45.2 146.7 44.7ZM150.3 41.8C150.3 41.2 150.1 40.8 149.8 40.4C149.5 40 149.1 39.9 148.6 39.9C148.1 39.9 147.7 40.1 147.4 40.4C147.1 40.7 147 41.2 147 41.8H150.3Z" fill="#3C3C3B"/>
<path d="M152.801 45.3C152.701 45.2 152.701 45.2 152.701 45.1V44.3C152.701 44.2 152.701 44.2 152.801 44.1C152.901 44 152.901 44 153.001 44H153.801C153.901 44 153.901 44 154.001 44.1C154.101 44.2 154.101 44.2 154.101 44.3V45.1C154.101 45.2 154.101 45.2 154.001 45.3C153.901 45.4 153.901 45.4 153.801 45.4H153.001C152.901 45.3 152.801 45.3 152.801 45.3Z" fill="#3C3C3B"/>
<path d="M154.401 47.5008C154.401 47.4008 154.301 47.4008 154.301 47.3008V47.0008C154.301 46.9008 154.301 46.9008 154.401 46.8008C154.401 46.8008 154.501 46.7008 154.601 46.7008H154.801C155.201 46.7008 155.401 46.6008 155.601 46.4008C155.701 46.2008 155.801 45.9008 155.801 45.5008V39.4008C155.801 39.3008 155.801 39.2008 155.901 39.2008C156.001 39.2008 156.001 39.1008 156.101 39.1008H156.601C156.701 39.1008 156.701 39.1008 156.801 39.2008C156.901 39.3008 156.901 39.3008 156.901 39.4008V45.5008C156.901 46.9008 156.201 47.6008 154.901 47.6008H154.701C154.501 47.6008 154.501 47.6008 154.401 47.5008ZM155.701 37.9008C155.601 37.8008 155.601 37.8008 155.601 37.7008V37.1008C155.601 37.0008 155.601 37.0008 155.701 36.9008C155.801 36.8008 155.801 36.8008 155.901 36.8008H156.601C156.701 36.8008 156.701 36.8008 156.801 36.9008C156.901 37.0008 156.901 37.0008 156.901 37.1008V37.7008C156.901 37.8008 156.901 37.8008 156.801 37.9008C156.701 38.0008 156.701 38.0008 156.601 38.0008H155.901C155.801 38.0008 155.801 38.0008 155.701 37.9008Z" fill="#3C3C3B"/>
<path d="M159.301 45.2004C158.901 45.0004 158.601 44.8004 158.501 44.6004C158.301 44.4004 158.201 44.2004 158.201 44.0004C158.201 43.9004 158.201 43.9004 158.301 43.8004C158.401 43.8004 158.401 43.7004 158.501 43.7004H159.001H159.101L159.201 43.8004C159.401 44.0004 159.601 44.2004 159.801 44.3004C160.001 44.4004 160.301 44.5004 160.701 44.5004C161.101 44.5004 161.501 44.4004 161.701 44.3004C162.001 44.1004 162.101 43.9004 162.101 43.6004C162.101 43.4004 162.001 43.2004 161.901 43.1004C161.801 43.0004 161.601 42.9004 161.301 42.8004C161.001 42.7004 160.701 42.6004 160.201 42.5004C159.501 42.3004 159.001 42.1004 158.701 41.8004C158.401 41.5004 158.301 41.1004 158.301 40.7004C158.301 40.4004 158.401 40.1004 158.601 39.9004C158.801 39.6004 159.001 39.4004 159.401 39.2004C159.701 39.0004 160.201 38.9004 160.601 38.9004C161.101 38.9004 161.501 39.0004 161.901 39.1004C162.301 39.3004 162.501 39.5004 162.701 39.7004C162.901 39.9004 163.001 40.1004 163.001 40.3004C163.001 40.4004 163.001 40.4004 162.901 40.5004C162.801 40.5004 162.801 40.6004 162.701 40.6004H162.201C162.101 40.6004 162.001 40.6004 162.001 40.5004C161.901 40.3004 161.801 40.2004 161.701 40.1004C161.601 40.0004 161.501 39.9004 161.301 39.9004C161.101 39.8004 160.901 39.8004 160.601 39.8004C160.201 39.8004 159.901 39.9004 159.701 40.0004C159.501 40.2004 159.401 40.4004 159.401 40.6004C159.401 40.8004 159.401 40.9004 159.501 41.0004C159.601 41.1004 159.801 41.2004 160.001 41.3004C160.201 41.4004 160.601 41.5004 161.101 41.6004C161.901 41.8004 162.401 42.0004 162.701 42.3004C163.001 42.6004 163.201 43.0004 163.201 43.4004C163.201 43.7004 163.101 44.1004 162.901 44.3004C162.701 44.6004 162.401 44.8004 162.001 45.0004C161.601 45.2004 161.201 45.2004 160.601 45.2004C160.201 45.5004 159.701 45.4004 159.301 45.2004Z" fill="#3C3C3B"/>
<defs>
<linearGradient id="paint0_linear_11_65" x1="-4.61599" y1="50.4601" x2="53.6854" y2="7.38217" gradientUnits="userSpaceOnUse">
<stop offset="0.57" stop-color="#3E863D"/>
<stop offset="0.72" stop-color="#619857"/>
<stop offset="1" stop-color="#76AC64"/>
</linearGradient>
<linearGradient id="paint1_linear_11_65" x1="1.28695" y1="28.7118" x2="49.4888" y2="28.7118" gradientUnits="userSpaceOnUse">
<stop offset="0.16" stop-color="#6BBF47"/>
<stop offset="0.38" stop-color="#79B461"/>
<stop offset="0.47" stop-color="#75AC64"/>
<stop offset="0.7" stop-color="#659E5A"/>
<stop offset="0.9" stop-color="#3E863D"/>
</linearGradient>
</defs>
</svg>
