<svg width="229" height="58" viewBox="0 0 229 58" fill="none" xmlns="http://www.w3.org/2000/svg">
<g clip-path="url(#clip0_11_64)">
<g filter="url(#filter0_d_11_64)">
<path d="M69.9 26.9996C68.7 25.8996 68.1 24.3996 68 22.3996C68 21.9996 68 21.2996 68 20.3996C68 19.3996 68 18.7996 68 18.2996C68.1 16.2996 68.7 14.7996 69.9 13.6996C71.1 12.5996 72.7 12.0996 74.8 12.0996C76.2 12.0996 77.4 12.2996 78.4 12.7996C79.4 13.2996 80.2 13.8996 80.8 14.6996C81.4 15.4996 81.7 16.3996 81.7 17.3996C81.7 17.4996 81.7 17.5996 81.6 17.6996C81.5 17.7996 81.4 17.7996 81.3 17.7996H79.1C78.9 17.7996 78.8 17.7996 78.7 17.6996C78.6 17.5996 78.5 17.4996 78.5 17.2996C78.3 16.2996 77.9 15.6996 77.3 15.2996C76.7 14.8996 76 14.6996 75 14.6996C72.8 14.6996 71.7 15.8996 71.6 18.3996C71.6 18.7996 71.6 19.4996 71.6 20.2996C71.6 21.1996 71.6 21.7996 71.6 22.2996C71.7 24.7996 72.8 25.9996 75 25.9996C75.9 25.9996 76.7 25.7996 77.2 25.3996C77.8 24.9996 78.2 24.2996 78.4 23.3996C78.5 23.1996 78.5 22.9996 78.6 22.9996C78.7 22.8996 78.8 22.8996 79 22.8996H81.2C81.3 22.8996 81.5 22.8996 81.6 22.9996C81.7 23.0996 81.7 23.1996 81.7 23.2996C81.7 24.2996 81.4 25.1996 80.8 25.9996C80.2 26.7996 79.5 27.4996 78.4 27.8996C77.4 28.3996 76.2 28.5996 74.8 28.5996C72.7 28.5996 71.1 28.0996 69.9 26.9996Z" fill="#5AAD45"/>
<path d="M85.7004 27C84.5004 25.9 83.9004 24.4 83.9004 22.3C83.9004 21.9 83.9004 21.2 83.9004 20.3C83.9004 19.4 83.9004 18.8 83.9004 18.3C84.0004 16.3 84.6004 14.7 85.8004 13.6C87.0004 12.5 88.6004 12 90.7004 12C92.7004 12 94.3004 12.5 95.5004 13.6C96.7004 14.7 97.3004 16.3 97.4004 18.3C97.4004 19.2 97.4004 19.8 97.4004 20.3C97.4004 20.7 97.4004 21.4 97.4004 22.3C97.3004 24.4 96.7004 26 95.5004 27C94.3004 28.1 92.7004 28.6 90.6004 28.6C88.5004 28.6 86.8004 28.1 85.7004 27ZM93.0004 25C93.6004 24.4 93.9004 23.4 94.0004 22.2C94.0004 21.3 94.0004 20.7 94.0004 20.3C94.0004 19.9 94.0004 19.3 94.0004 18.4C94.0004 17.1 93.6004 16.2 93.0004 15.6C92.4004 15 91.6004 14.7 90.6004 14.7C89.6004 14.7 88.8004 15 88.2004 15.6C87.6004 16.2 87.3004 17.2 87.2004 18.4C87.2004 18.8 87.2004 19.5 87.2004 20.3C87.2004 21.1 87.2004 21.7 87.2004 22.2C87.2004 23.5 87.5004 24.4 88.2004 25C88.8004 25.6 89.6004 25.9 90.6004 25.9C91.6004 25.9 92.4004 25.7 93.0004 25Z" fill="#5AAD45"/>
<path d="M101.7 27C100.5 25.9 99.9004 24.4 99.9004 22.3C99.9004 21.9 99.9004 21.2 99.9004 20.3C99.9004 19.4 99.9004 18.8 99.9004 18.3C100 16.3 100.6 14.7 101.8 13.6C103 12.5 104.6 12 106.7 12C108.7 12 110.3 12.5 111.5 13.6C112.7 14.7 113.3 16.3 113.4 18.3C113.4 19.2 113.4 19.8 113.4 20.3C113.4 20.7 113.4 21.4 113.4 22.3C113.3 24.4 112.7 26 111.5 27C110.3 28.1 108.7 28.6 106.6 28.6C104.5 28.6 102.8 28.1 101.7 27ZM109 25C109.6 24.4 109.9 23.4 110 22.2C110 21.3 110 20.7 110 20.3C110 19.9 110 19.3 110 18.4C110 17.1 109.6 16.2 109 15.6C108.4 15 107.6 14.7 106.6 14.7C105.6 14.7 104.8 15 104.2 15.6C103.6 16.2 103.3 17.2 103.2 18.4C103.2 18.8 103.2 19.5 103.2 20.3C103.2 21.1 103.2 21.7 103.2 22.2C103.2 23.5 103.5 24.4 104.2 25C104.8 25.6 105.6 25.9 106.6 25.9C107.6 25.9 108.4 25.7 109 25Z" fill="#5AAD45"/>
<path d="M116.5 28.1992C116.4 28.0992 116.3 27.9992 116.3 27.7992V12.7992C116.3 12.5992 116.3 12.4992 116.4 12.3992C116.5 12.2992 116.6 12.1992 116.8 12.1992H118.9C119.1 12.1992 119.2 12.2992 119.3 12.3992C119.4 12.4992 119.5 12.5992 119.5 12.7992V18.1992L124.6 12.6992C124.8 12.3992 125.1 12.2992 125.5 12.2992H127.8C127.9 12.2992 128 12.2992 128.1 12.3992C128.2 12.4992 128.2 12.5992 128.2 12.6992C128.2 12.7992 128.2 12.8992 128.1 12.9992L121.8 19.8992L128.5 27.4992C128.6 27.5992 128.6 27.6992 128.6 27.7992C128.6 27.8992 128.6 28.0992 128.5 28.0992C128.4 28.1992 128.3 28.1992 128.2 28.1992H125.8C125.5 28.1992 125.2 28.0992 125.1 27.9992C125 27.8992 124.9 27.7992 124.9 27.7992L119.4 21.6992V27.5992C119.4 27.7992 119.3 27.8992 119.2 27.9992C119.1 28.0992 119 28.1992 118.8 28.1992H116.7C116.7 28.3992 116.6 28.2992 116.5 28.1992Z" fill="#5AAD45"/>
<path d="M155.7 27C154.5 25.9 153.9 24.4 153.9 22.3C153.9 21.9 153.9 21.2 153.9 20.3C153.9 19.4 153.9 18.8 153.9 18.3C154 16.3 154.6 14.7 155.8 13.6C157 12.5 158.6 12 160.7 12C162.7 12 164.3 12.5 165.5 13.6C166.7 14.7 167.3 16.3 167.4 18.3C167.4 19.2 167.4 19.8 167.4 20.3C167.4 20.7 167.4 21.4 167.4 22.3C167.3 24.4 166.7 26 165.5 27C164.3 28.1 162.7 28.6 160.6 28.6C158.5 28.6 156.8 28.1 155.7 27ZM163 25C163.6 24.4 163.9 23.4 164 22.2C164 21.3 164 20.7 164 20.3C164 19.9 164 19.3 164 18.4C164 17.1 163.6 16.2 163 15.6C162.4 15 161.6 14.7 160.6 14.7C159.6 14.7 158.8 15 158.2 15.6C157.6 16.2 157.3 17.2 157.2 18.4C157.2 18.8 157.2 19.5 157.2 20.3C157.2 21.1 157.2 21.7 157.2 22.2C157.2 23.5 157.5 24.4 158.2 25C158.8 25.6 159.6 25.9 160.6 25.9C161.6 25.9 162.4 25.7 163 25Z" fill="#5AAD45"/>
<path d="M171.7 27C170.5 25.9 169.9 24.4 169.9 22.3C169.9 21.9 169.9 21.2 169.9 20.3C169.9 19.4 169.9 18.8 169.9 18.3C170 16.3 170.6 14.7 171.8 13.6C173 12.5 174.6 12 176.7 12C178.7 12 180.3 12.5 181.5 13.6C182.7 14.7 183.3 16.3 183.4 18.3C183.4 19.2 183.4 19.8 183.4 20.3C183.4 20.7 183.4 21.4 183.4 22.3C183.3 24.4 182.7 26 181.5 27C180.3 28.1 178.7 28.6 176.6 28.6C174.5 28.6 172.8 28.1 171.7 27ZM179 25C179.6 24.4 179.9 23.4 180 22.2C180 21.3 180 20.7 180 20.3C180 19.9 180 19.3 180 18.4C180 17.1 179.6 16.2 179 15.6C178.4 15 177.6 14.7 176.6 14.7C175.6 14.7 174.8 15 174.2 15.6C173.6 16.2 173.3 17.2 173.2 18.4C173.2 18.8 173.2 19.5 173.2 20.3C173.2 21.1 173.2 21.7 173.2 22.2C173.2 23.5 173.5 24.4 174.2 25C174.8 25.6 175.6 25.9 176.6 25.9C177.6 25.9 178.4 25.7 179 25Z" fill="#5AAD45"/>
<path d="M186.5 28.1992C186.4 28.0992 186.3 27.9992 186.3 27.7992V12.7992C186.3 12.5992 186.3 12.4992 186.4 12.3992C186.5 12.2992 186.6 12.1992 186.8 12.1992H188.9C189.1 12.1992 189.2 12.2992 189.3 12.3992C189.4 12.4992 189.5 12.5992 189.5 12.7992V18.1992L194.6 12.6992C194.8 12.3992 195.1 12.2992 195.5 12.2992H197.8C197.9 12.2992 198 12.2992 198.1 12.3992C198.2 12.4992 198.2 12.5992 198.2 12.6992C198.2 12.7992 198.2 12.8992 198.1 12.9992L191.8 19.8992L198.5 27.4992C198.6 27.5992 198.6 27.6992 198.6 27.7992C198.6 27.8992 198.6 28.0992 198.5 28.0992C198.4 28.1992 198.3 28.1992 198.2 28.1992H195.8C195.5 28.1992 195.2 28.0992 195.1 27.9992C195 27.8992 194.9 27.7992 194.9 27.7992L189.4 21.6992V27.5992C189.4 27.7992 189.3 27.8992 189.2 27.9992C189.1 28.0992 189 28.1992 188.8 28.1992H186.7C186.7 28.3992 186.6 28.2992 186.5 28.1992Z" fill="#5AAD45"/>
<path d="M138.6 28.1992C138.5 28.0992 138.4 27.9992 138.4 27.7992V12.7992C138.4 12.5992 138.4 12.4992 138.5 12.3992C138.6 12.2992 138.7 12.1992 138.9 12.1992H145.6C147.4 12.1992 148.7 12.5992 149.6 13.3992C150.5 14.1992 150.9 15.2992 150.9 16.5992C150.9 17.3992 150.7 18.0992 150.3 18.5992C149.9 19.1992 149.5 19.5992 148.9 19.7992C149.5 20.0992 150.1 20.5992 150.5 21.1992C150.9 21.8992 151.2 22.5992 151.2 23.4992C151.2 24.8992 150.7 26.0992 149.8 26.9992C148.8 27.8992 147.5 28.2992 145.8 28.2992H138.9C138.8 28.3992 138.7 28.2992 138.6 28.1992ZM145.2 18.8992C146 18.8992 146.6 18.6992 147 18.2992C147.4 17.8992 147.6 17.3992 147.6 16.7992C147.6 16.1992 147.4 15.6992 147 15.2992C146.6 14.8992 146 14.7992 145.2 14.7992H141.6V18.8992H145.2ZM145.5 25.8992C146.3 25.8992 146.9 25.6992 147.4 25.1992C147.8 24.7992 148.1 24.1992 148.1 23.4992C148.1 22.7992 147.9 22.2992 147.4 21.7992C146.9 21.2992 146.3 21.0992 145.5 21.0992H141.7V25.6992H145.5V25.8992Z" fill="#5AAD45"/>
<path d="M69.3002 45.3C69.2002 45.2 69.2002 45.2 69.2002 45.1V37.3C69.2002 37.2 69.2002 37.1 69.3002 37.1C69.4002 37.1 69.4002 37 69.5002 37H70.1002C70.2002 37 70.3002 37.1 70.4002 37.2L72.9002 42.1L75.5002 37.2C75.6002 37.1 75.7002 37 75.8002 37H76.4002C76.5002 37 76.6002 37 76.6002 37.1C76.6002 37.2 76.7002 37.2 76.7002 37.3V45.1C76.7002 45.2 76.7002 45.2 76.6002 45.3C76.5002 45.4 76.5002 45.4 76.4002 45.4H75.9002C75.8002 45.4 75.8002 45.4 75.7002 45.3C75.6002 45.2 75.6002 45.2 75.6002 45.1V39.2L73.6002 43.1C73.5002 43.3 73.4002 43.3 73.2002 43.3H72.8002C72.6002 43.3 72.5002 43.2 72.4002 43.1L70.4002 39.2V45.1C70.4002 45.2 70.4002 45.2 70.3002 45.3C70.2002 45.4 70.2002 45.4 70.1002 45.4H69.6002C69.4002 45.3 69.3002 45.3 69.3002 45.3Z" fill="#5AAD45"/>
<path d="M79.1 45.2016C78.8 45.0016 78.5 44.8016 78.3 44.6016C78.1 44.3016 78 44.0016 78 43.7016C78 43.2016 78.2 42.7016 78.6 42.4016C79 42.1016 79.6 41.8016 80.3 41.7016L82.1 41.5016V41.2016C82.1 40.4016 81.6 40.0016 80.7 40.0016C80.3 40.0016 80 40.1016 79.8 40.2016C79.6 40.3016 79.4 40.5016 79.3 40.7016C79.3 40.8016 79.2 40.8016 79.2 40.9016H79.1H78.6C78.5 40.9016 78.5 40.9016 78.4 40.8016C78.3 40.7016 78.3 40.7016 78.3 40.6016C78.3 40.4016 78.4 40.2016 78.6 40.0016C78.8 39.8016 79 39.5016 79.4 39.4016C79.8 39.2016 80.2 39.1016 80.7 39.1016C81.6 39.1016 82.2 39.3016 82.6 39.7016C83 40.1016 83.2 40.6016 83.2 41.2016V45.1016C83.2 45.2016 83.2 45.2016 83.1 45.3016C83 45.4016 83 45.4016 82.9 45.4016H82.4C82.3 45.4016 82.3 45.4016 82.2 45.3016C82.2 45.2016 82.1 45.2016 82.1 45.1016V44.6016C81.9 44.9016 81.7 45.1016 81.3 45.3016C81 45.5016 80.5 45.6016 80 45.6016C79.8 45.5016 79.4 45.4016 79.1 45.2016ZM81.7 44.1016C82 43.8016 82.2 43.3016 82.2 42.6016V42.3016L80.8 42.5016C80.2 42.6016 79.8 42.7016 79.5 42.9016C79.2 43.1016 79.1 43.3016 79.1 43.6016C79.1 43.9016 79.2 44.2016 79.5 44.3016C79.8 44.5016 80.1 44.6016 80.4 44.6016C81 44.6016 81.4 44.4016 81.7 44.1016Z" fill="#5AAD45"/>
<path d="M85.4002 44.7C85.0002 44.2 84.8002 43.5 84.7002 42.7V42.3V41.9C84.7002 41.1 85.0002 40.4 85.4002 39.9C85.8002 39.4 86.4002 39.1 87.3002 39.1C88.2002 39.1 88.8002 39.4 89.2002 40V37.3C89.2002 37.2 89.2002 37.2 89.3002 37.1C89.4002 37 89.4002 37 89.5002 37H90.0002C90.1002 37 90.1002 37 90.2002 37.1C90.3002 37.2 90.3002 37.2 90.3002 37.3V45.2C90.3002 45.3 90.3002 45.3 90.2002 45.4C90.1002 45.5 90.1002 45.5 90.0002 45.5H89.5002C89.4002 45.5 89.4002 45.5 89.3002 45.4C89.3002 45.3 89.2002 45.3 89.2002 45.2V44.7C88.7002 45.3 88.1002 45.6 87.2002 45.6C86.4002 45.5 85.8002 45.2 85.4002 44.7ZM88.7002 44C89.0002 43.6 89.1002 43.2 89.2002 42.7C89.2002 42.6 89.2002 42.5 89.2002 42.2C89.2002 42 89.2002 41.8 89.2002 41.7C89.2002 41.2 89.0002 40.8 88.7002 40.4C88.4002 40 88.0002 40 87.5002 40C86.9002 40 86.5002 40.2 86.3002 40.5C86.1002 40.8 85.9002 41.3 85.9002 41.9V42.2C85.9002 43.7 86.5002 44.5 87.6002 44.5C88.1002 44.5 88.5002 44.4 88.7002 44Z" fill="#5AAD45"/>
<path d="M92.5998 44.7C92.0998 44.2 91.8998 43.5 91.7998 42.6V42.2V41.8C91.7998 40.9 92.0998 40.3 92.5998 39.8C93.0998 39.3 93.6998 39 94.4998 39C95.3998 39 95.9998 39.3 96.4998 39.8C96.9998 40.4 97.1998 41.1 97.1998 42.1V42.3C97.1998 42.4 97.1998 42.4 97.0998 42.5C96.9998 42.6 96.9998 42.6 96.8998 42.6H92.7998V42.7C92.7998 43.2 92.9998 43.7 93.2998 44C93.5998 44.3 93.9998 44.5 94.4998 44.5C94.8998 44.5 95.1998 44.4 95.3998 44.3C95.5998 44.2 95.7998 44 95.8998 43.8C95.9998 43.7 95.9998 43.6 96.0998 43.6C96.1998 43.6 96.1998 43.6 96.2998 43.6H96.7998C96.8998 43.6 96.8998 43.6 96.9998 43.7C97.0998 43.7 97.0998 43.8 97.0998 43.9C97.0998 44.1 96.9998 44.3 96.7998 44.5C96.5998 44.7 96.2998 45 95.8998 45.1C95.4998 45.3 95.0998 45.4 94.5998 45.4C93.6998 45.5 93.0998 45.2 92.5998 44.7ZM96.1998 41.8C96.1998 41.2 95.9998 40.8 95.6998 40.4C95.3998 40.1 94.9998 39.9 94.4998 39.9C93.9998 39.9 93.5998 40.1 93.2998 40.4C92.9998 40.7 92.8998 41.2 92.8998 41.8H96.1998Z" fill="#5AAD45"/>
<path d="M102.8 45.3016C102.7 45.3016 102.7 45.2016 102.7 45.1016L101 39.6016V39.5016C101 39.4016 101 39.4016 101.1 39.3016C101.1 39.3016 101.2 39.2016 101.3 39.2016H101.8C101.9 39.2016 101.9 39.2016 102 39.3016C102.1 39.3016 102.1 39.4016 102.1 39.4016L103.4 43.9016L104.8 39.4016C104.8 39.3016 104.9 39.3016 104.9 39.2016C105 39.1016 105 39.1016 105.1 39.1016H105.5C105.6 39.1016 105.7 39.1016 105.7 39.2016C105.8 39.3016 105.8 39.3016 105.8 39.4016L107.2 43.9016L108.5 39.4016C108.5 39.4016 108.5 39.3016 108.6 39.3016C108.7 39.3016 108.7 39.2016 108.8 39.2016H109.3C109.4 39.2016 109.4 39.2016 109.5 39.3016C109.5 39.3016 109.6 39.4016 109.6 39.5016V39.6016L107.9 45.1016C107.9 45.2016 107.8 45.3016 107.8 45.3016C107.8 45.3016 107.7 45.4016 107.6 45.4016H107.2C107 45.4016 106.9 45.3016 106.8 45.1016L105.4 40.8016L104 45.1016C103.9 45.3016 103.8 45.4016 103.6 45.4016H103.2C102.9 45.3016 102.8 45.3016 102.8 45.3016Z" fill="#5AAD45"/>
<path d="M110.9 37.9008C110.8 37.8008 110.8 37.8008 110.8 37.7008V37.1008C110.8 37.0008 110.8 37.0008 110.9 36.9008C111 36.8008 111 36.8008 111.1 36.8008H111.8C111.9 36.8008 111.9 36.8008 112 36.9008C112.1 37.0008 112.1 37.0008 112.1 37.1008V37.7008C112.1 37.8008 112.1 37.8008 112 37.9008C111.9 38.0008 111.9 38.0008 111.8 38.0008H111.1C111 38.0008 110.9 38.0008 110.9 37.9008ZM110.9 45.3008C110.8 45.2008 110.8 45.2008 110.8 45.1008V39.5008C110.8 39.4008 110.8 39.4008 110.9 39.3008C111 39.2008 111 39.2008 111.1 39.2008H111.6C111.7 39.2008 111.7 39.2008 111.8 39.3008C111.9 39.4008 111.9 39.4008 111.9 39.5008V45.1008C111.9 45.2008 111.9 45.2008 111.8 45.3008C111.7 45.4008 111.7 45.4008 111.6 45.4008H111.1C111.1 45.3008 111 45.3008 110.9 45.3008Z" fill="#5AAD45"/>
<path d="M114.301 43.3008V40.1008H113.401C113.301 40.1008 113.301 40.1008 113.201 40.0008C113.101 39.9008 113.101 39.9008 113.101 39.8008V39.4008C113.101 39.3008 113.101 39.3008 113.201 39.2008C113.201 39.1008 113.301 39.1008 113.401 39.1008H114.301V37.1008C114.301 37.0008 114.301 37.0008 114.401 36.9008C114.401 36.8008 114.501 36.8008 114.601 36.8008H115.101C115.201 36.8008 115.201 36.8008 115.301 36.9008C115.401 37.0008 115.401 37.0008 115.401 37.1008V39.1008H116.901C117.001 39.1008 117.001 39.1008 117.101 39.2008C117.201 39.3008 117.201 39.3008 117.201 39.4008V39.8008C117.201 39.9008 117.201 39.9008 117.101 40.0008C117.001 40.0008 117.001 40.1008 116.901 40.1008H115.401V43.2008C115.401 43.6008 115.501 43.9008 115.601 44.1008C115.701 44.3008 116.001 44.4008 116.301 44.4008H117.001C117.101 44.4008 117.101 44.4008 117.201 44.5008C117.301 44.6008 117.301 44.6008 117.301 44.7008V45.1008C117.301 45.2008 117.301 45.2008 117.201 45.3008C117.101 45.4008 117.101 45.4008 117.001 45.4008H116.201C114.901 45.3008 114.301 44.7008 114.301 43.3008Z" fill="#5AAD45"/>
<path d="M118.4 45.3004C118.3 45.2004 118.3 45.2004 118.3 45.1004V37.2004C118.3 37.1004 118.3 37.0004 118.4 37.0004C118.5 37.0004 118.5 36.9004 118.6 36.9004H119.1C119.2 36.9004 119.3 36.9004 119.3 37.0004C119.3 37.0004 119.4 37.1004 119.4 37.2004V40.0004C119.6 39.7004 119.9 39.5004 120.2 39.3004C120.5 39.1004 120.9 39.1004 121.4 39.1004C122.2 39.1004 122.8 39.3004 123.2 39.8004C123.6 40.3004 123.8 40.9004 123.8 41.7004V45.1004C123.8 45.2004 123.8 45.2004 123.7 45.3004C123.6 45.4004 123.6 45.4004 123.5 45.4004H122.9C122.8 45.4004 122.8 45.4004 122.7 45.3004C122.6 45.2004 122.6 45.2004 122.6 45.1004V41.8004C122.6 41.2004 122.5 40.8004 122.2 40.5004C121.9 40.2004 121.5 40.0004 121 40.0004C120.5 40.0004 120.1 40.2004 119.8 40.5004C119.5 40.8004 119.3 41.3004 119.3 41.8004V45.1004C119.3 45.2004 119.3 45.2004 119.2 45.3004C119.1 45.4004 119.1 45.4004 119 45.4004H118.5C118.5 45.3004 118.5 45.3004 118.4 45.3004Z" fill="#5AAD45"/>
<path d="M128.701 45.3004C128.701 45.2004 128.601 45.2004 128.601 45.1004V37.3004C128.601 37.2004 128.601 37.1004 128.701 37.1004C128.701 37.0004 128.801 37.0004 128.901 37.0004H129.401C129.501 37.0004 129.501 37.0004 129.601 37.0004L129.701 37.1004L133.701 43.2004V37.2004C133.701 37.1004 133.701 37.0004 133.801 37.0004C133.901 36.9004 133.901 36.9004 134.001 36.9004H134.501C134.601 36.9004 134.701 36.9004 134.701 37.0004C134.801 37.1004 134.801 37.1004 134.801 37.2004V44.9004C134.801 45.0004 134.801 45.0004 134.701 45.1004C134.601 45.2004 134.601 45.2004 134.501 45.2004H134.001C133.901 45.2004 133.801 45.1004 133.701 45.0004L129.701 38.9004V44.9004C129.701 45.0004 129.701 45.0004 129.601 45.1004C129.501 45.2004 129.501 45.2004 129.401 45.2004H128.901C128.801 45.3004 128.701 45.3004 128.701 45.3004Z" fill="#5AAD45"/>
<path d="M137.2 44.7C136.7 44.2 136.5 43.6 136.4 42.7V42.2V41.7C136.4 40.9 136.7 40.2 137.2 39.7C137.7 39.2 138.3 39 139.2 39C140.1 39 140.7 39.2 141.2 39.7C141.7 40.2 141.9 40.8 142 41.7C142 41.9 142 42 142 42.2C142 42.4 142 42.5 142 42.7C142 43.5 141.7 44.2 141.2 44.7C140.7 45.2 140.1 45.4 139.2 45.4C138.3 45.4 137.7 45.2 137.2 44.7ZM140.4 44.1C140.7 43.8 140.9 43.3 140.9 42.7C140.9 42.6 140.9 42.5 140.9 42.2C140.9 41.9 140.9 41.8 140.9 41.7C140.9 41.1 140.7 40.6 140.4 40.3C140.1 40 139.7 39.8 139.2 39.8C138.7 39.8 138.3 40 138 40.3C137.7 40.6 137.5 41.1 137.5 41.7V42.2V42.7C137.5 43.3 137.7 43.8 138 44.1C138.3 44.4 138.7 44.6 139.2 44.6C139.7 44.6 140.1 44.4 140.4 44.1Z" fill="#5AAD45"/>
<path d="M143.9 44.7C143.5 44.2 143.3 43.5 143.2 42.7V42.3V41.9C143.2 41.1 143.5 40.4 143.9 39.9C144.3 39.4 144.9 39.1 145.8 39.1C146.6 39.1 147.3 39.4 147.7 40V37.3C147.7 37.2 147.7 37.2 147.8 37.1C147.9 37 147.9 37 148 37H148.5C148.6 37 148.6 37 148.7 37.1C148.8 37.2 148.8 37.2 148.8 37.3V45.2C148.8 45.3 148.8 45.3 148.7 45.4C148.6 45.5 148.6 45.5 148.5 45.5H148C147.9 45.5 147.9 45.5 147.8 45.4C147.8 45.3 147.7 45.3 147.7 45.2V44.7C147.2 45.3 146.6 45.6 145.7 45.6C144.9 45.5 144.3 45.2 143.9 44.7ZM147.2 44C147.5 43.6 147.6 43.2 147.7 42.7C147.7 42.6 147.7 42.5 147.7 42.2C147.7 42 147.7 41.8 147.7 41.7C147.7 41.2 147.5 40.8 147.2 40.4C146.9 40 146.5 39.9 146 39.9C145.4 39.9 145 40.1 144.8 40.4C144.5 40.8 144.4 41.2 144.4 41.8V42.1C144.4 43.6 145 44.4 146.1 44.4C146.5 44.5 146.9 44.4 147.2 44Z" fill="#5AAD45"/>
<path d="M151.1 44.7C150.6 44.2 150.4 43.5 150.3 42.6V42.2V41.8C150.3 40.9 150.6 40.3 151.1 39.8C151.6 39.3 152.2 39 153 39C153.9 39 154.5 39.3 155 39.8C155.5 40.4 155.7 41.1 155.7 42.1V42.3C155.7 42.4 155.7 42.4 155.6 42.5C155.5 42.6 155.5 42.6 155.4 42.6H151.3V42.7C151.3 43.2 151.5 43.7 151.8 44C152.1 44.3 152.5 44.5 153 44.5C153.4 44.5 153.7 44.4 153.9 44.3C154.1 44.2 154.3 44 154.4 43.8C154.5 43.7 154.5 43.6 154.6 43.6C154.6 43.6 154.7 43.6 154.8 43.6H155.3C155.4 43.6 155.4 43.6 155.5 43.7C155.6 43.7 155.6 43.8 155.6 43.9C155.6 44.1 155.5 44.3 155.3 44.5C155.1 44.7 154.8 45 154.4 45.1C154 45.3 153.6 45.4 153.1 45.4C152.2 45.5 151.5 45.2 151.1 44.7ZM154.7 41.8C154.7 41.2 154.5 40.8 154.2 40.4C153.9 40 153.5 39.9 153 39.9C152.5 39.9 152.1 40.1 151.8 40.4C151.5 40.7 151.4 41.2 151.4 41.8H154.7Z" fill="#5AAD45"/>
<path d="M157.201 45.3C157.101 45.2 157.101 45.2 157.101 45.1V44.3C157.101 44.2 157.101 44.2 157.201 44.1C157.301 44 157.301 44 157.401 44H158.201C158.301 44 158.301 44 158.401 44.1C158.501 44.2 158.501 44.2 158.501 44.3V45.1C158.501 45.2 158.501 45.2 158.401 45.3C158.301 45.4 158.301 45.4 158.201 45.4H157.401C157.301 45.3 157.201 45.3 157.201 45.3Z" fill="#5AAD45"/>
<path d="M158.8 47.5008C158.8 47.4008 158.7 47.4008 158.7 47.3008V47.0008C158.7 46.9008 158.7 46.9008 158.8 46.8008C158.8 46.8008 158.9 46.7008 159 46.7008H159.2C159.6 46.7008 159.8 46.6008 160 46.4008C160.1 46.2008 160.2 45.9008 160.2 45.5008V39.4008C160.2 39.3008 160.2 39.2008 160.3 39.2008C160.4 39.2008 160.4 39.1008 160.5 39.1008H161C161.1 39.1008 161.1 39.1008 161.2 39.2008C161.3 39.3008 161.3 39.3008 161.3 39.4008V45.5008C161.3 46.9008 160.6 47.6008 159.3 47.6008H159.1C158.9 47.6008 158.9 47.6008 158.8 47.5008ZM160.1 37.9008C160 37.8008 160 37.8008 160 37.7008V37.1008C160 37.0008 160 37.0008 160.1 36.9008C160.2 36.8008 160.2 36.8008 160.3 36.8008H161C161.1 36.8008 161.1 36.8008 161.2 36.9008C161.3 37.0008 161.3 37.0008 161.3 37.1008V37.7008C161.3 37.8008 161.3 37.8008 161.2 37.9008C161.1 38.0008 161.1 38.0008 161 38.0008H160.3C160.2 38.0008 160.2 38.0008 160.1 37.9008Z" fill="#5AAD45"/>
<path d="M163.701 45.2004C163.301 45.0004 163.001 44.8004 162.901 44.6004C162.701 44.4004 162.601 44.2004 162.601 44.0004C162.601 43.9004 162.601 43.9004 162.701 43.8004C162.801 43.8004 162.801 43.7004 162.901 43.7004H163.401H163.501L163.601 43.8004C163.801 44.0004 164.001 44.2004 164.201 44.3004C164.401 44.4004 164.701 44.5004 165.101 44.5004C165.501 44.5004 165.901 44.4004 166.101 44.3004C166.401 44.1004 166.501 43.9004 166.501 43.6004C166.501 43.4004 166.401 43.2004 166.301 43.1004C166.201 43.0004 166.001 42.9004 165.701 42.8004C165.401 42.7004 165.101 42.6004 164.601 42.5004C163.901 42.3004 163.401 42.1004 163.101 41.8004C162.801 41.5004 162.701 41.1004 162.701 40.7004C162.701 40.4004 162.801 40.1004 163.001 39.9004C163.201 39.6004 163.401 39.4004 163.801 39.2004C164.101 39.0004 164.601 38.9004 165.001 38.9004C165.501 38.9004 165.901 39.0004 166.301 39.1004C166.701 39.3004 166.901 39.5004 167.101 39.7004C167.301 39.9004 167.401 40.1004 167.401 40.3004C167.401 40.4004 167.401 40.4004 167.301 40.5004C167.201 40.5004 167.201 40.6004 167.101 40.6004H166.601C166.501 40.6004 166.401 40.6004 166.401 40.5004C166.301 40.3004 166.201 40.2004 166.101 40.1004C166.001 40.0004 165.901 39.9004 165.701 39.9004C165.501 39.8004 165.301 39.8004 165.001 39.8004C164.601 39.8004 164.301 39.9004 164.101 40.0004C163.901 40.2004 163.801 40.4004 163.801 40.6004C163.801 40.8004 163.801 40.9004 163.901 41.0004C164.001 41.1004 164.201 41.2004 164.401 41.3004C164.601 41.4004 165.001 41.5004 165.501 41.6004C166.301 41.8004 166.801 42.0004 167.101 42.3004C167.401 42.6004 167.601 43.0004 167.601 43.4004C167.601 43.7004 167.501 44.1004 167.301 44.3004C167.101 44.6004 166.801 44.8004 166.401 45.0004C166.001 45.2004 165.601 45.2004 165.001 45.2004C164.601 45.5004 164.101 45.4004 163.701 45.2004Z" fill="#5AAD45"/>
</g>
<path d="M132.201 21.3C132.101 21.2 132.101 21.2 132.101 21.1V20.3C132.101 20.2 132.101 20.2 132.201 20.1C132.301 20 132.301 20 132.401 20H133.201C133.301 20 133.301 20 133.401 20.1C133.501 20.2 133.501 20.2 133.501 20.3V21.1C133.501 21.2 133.501 21.2 133.401 21.3C133.301 21.4 133.301 21.4 133.201 21.4H132.401C132.301 21.3 132.201 21.3 132.201 21.3Z" fill="#5AAD45"/>
<g filter="url(#filter1_d_11_64)">
<path d="M32.5 16.934V52.1423M32.5 16.934C29.337 14.8325 25.0426 13.541 20.3125 13.541C15.5824 13.541 11.288 14.8325 8.125 16.934V52.1423C11.288 50.0409 15.5824 48.7493 20.3125 48.7493C25.0426 48.7493 29.337 50.0409 32.5 52.1423M32.5 16.934C35.663 14.8325 39.9574 13.541 44.6875 13.541C49.4176 13.541 53.712 14.8325 56.875 16.934V52.1423C53.712 50.0409 49.4176 48.7493 44.6875 48.7493C39.9574 48.7493 35.663 50.0409 32.5 52.1423" stroke="url(#paint0_linear_11_64)" stroke-width="2" stroke-linecap="round" stroke-linejoin="round"/>
</g>
</g>
<defs>
<filter id="filter0_d_11_64" x="64" y="12" width="138.6" height="43.6016" filterUnits="userSpaceOnUse" color-interpolation-filters="sRGB">
<feFlood flood-opacity="0" result="BackgroundImageFix"/>
<feColorMatrix in="SourceAlpha" type="matrix" values="0 0 0 0 0 0 0 0 0 0 0 0 0 0 0 0 0 0 127 0" result="hardAlpha"/>
<feOffset dy="4"/>
<feGaussianBlur stdDeviation="2"/>
<feComposite in2="hardAlpha" operator="out"/>
<feColorMatrix type="matrix" values="0 0 0 0 0 0 0 0 0 0 0 0 0 0 0 0 0 0 0.25 0"/>
<feBlend mode="normal" in2="BackgroundImageFix" result="effect1_dropShadow_11_64"/>
<feBlend mode="normal" in="SourceGraphic" in2="effect1_dropShadow_11_64" result="shape"/>
</filter>
<filter id="filter1_d_11_64" x="-4" y="0" width="73" height="73" filterUnits="userSpaceOnUse" color-interpolation-filters="sRGB">
<feFlood flood-opacity="0" result="BackgroundImageFix"/>
<feColorMatrix in="SourceAlpha" type="matrix" values="0 0 0 0 0 0 0 0 0 0 0 0 0 0 0 0 0 0 127 0" result="hardAlpha"/>
<feOffset dy="4"/>
<feGaussianBlur stdDeviation="2"/>
<feComposite in2="hardAlpha" operator="out"/>
<feColorMatrix type="matrix" values="0 0 0 0 0 0 0 0 0 0 0 0 0 0 0 0 0 0 0.25 0"/>
<feBlend mode="normal" in2="BackgroundImageFix" result="effect1_dropShadow_11_64"/>
<feBlend mode="normal" in="SourceGraphic" in2="effect1_dropShadow_11_64" result="shape"/>
</filter>
<linearGradient id="paint0_linear_11_64" x1="20.3125" y1="52.1423" x2="36.8272" y2="10.429" gradientUnits="userSpaceOnUse">
<stop stop-color="#5AAD45"/>
<stop offset="1" stop-color="#6941C6"/>
</linearGradient>
<clipPath id="clip0_11_64">
<rect width="229" height="58" fill="white"/>
</clipPath>
</defs>
</svg>
